<svg version="1.1" xmlns="http://www.w3.org/2000/svg" viewBox="0 0 855 622" width="855" height="622">
  <!-- svg-source:excalidraw -->
  
  <defs>
    <style>
      @font-face {
        font-family: "Virgil";
        src: url("https://excalidraw.com/Virgil.woff2");
      }
      @font-face {
        font-family: "Cascadia";
        src: url("https://excalidraw.com/Cascadia.woff2");
      }
    </style>
  </defs>
  <rect x="0" y="0" width="855" height="622" fill="#ffffff"></rect><g transform="translate(96 130) rotate(0 230.5 69)"><text x="0" y="18" font-family="Helvetica, Segoe UI Emoji" font-size="20px" fill="#000000" text-anchor="start" style="white-space: pre;" direction="ltr">observability =&gt; transform collected data into KPIs</text><text x="0" y="41" font-family="Helvetica, Segoe UI Emoji" font-size="20px" fill="#000000" text-anchor="start" style="white-space: pre;" direction="ltr">monitoring =&gt; continuously collect environment data</text><text x="0" y="64" font-family="Helvetica, Segoe UI Emoji" font-size="20px" fill="#000000" text-anchor="start" style="white-space: pre;" direction="ltr">reporting =&gt; executive reporting on the KPIs</text><text x="0" y="87" font-family="Helvetica, Segoe UI Emoji" font-size="20px" fill="#000000" text-anchor="start" style="white-space: pre;" direction="ltr">scheduling =&gt; schedule jobs (builds, tests, etc.)</text><text x="0" y="110" font-family="Helvetica, Segoe UI Emoji" font-size="20px" fill="#000000" text-anchor="start" style="white-space: pre;" direction="ltr">backpage =&gt; development tools portal</text><text x="0" y="133" font-family="Helvetica, Segoe UI Emoji" font-size="20px" fill="#000000" text-anchor="start" style="white-space: pre;" direction="ltr"></text></g><g transform="translate(96 82) rotate(0 120.5 11.5)"><text x="0" y="18" font-family="Helvetica, Segoe UI Emoji" font-size="20px" fill="#000000" text-anchor="start" style="white-space: pre;" direction="ltr">NEBULYZER // salt-master</text></g><g stroke-linecap="round" transform="translate(10 10) rotate(0 326 141)"><path d="M-0.5 -0.71 C237.59 0.32, 475.64 0.43, 652.8 -0.05 M652.03 -1.05 C652.9 94.31, 653.41 188.77, 650.63 281.7 M651.37 282.36 C458.49 282.14, 265.07 282.13, -0.48 282.72 M-0.83 281.63 C-1.34 171.56, 0.66 59.27, -0.77 1.52" stroke="#000000" stroke-width="1.5" fill="none" stroke-dasharray="1.5 7"></path></g><g stroke-linecap="round"><g transform="translate(96.22342235669498 150.9395906134788) rotate(0 58.418207784742066 0.2737839501025121)"><path d="M-0.28 0.52 C19.18 0.28, 97.59 -0.3, 117.11 -0.39 M1.78 -0.25 C21.12 0.2, 97.53 0.69, 116.65 0.94" stroke="#000000" stroke-width="1" fill="none"></path></g></g><g stroke-linecap="round"><g transform="translate(96.9026072859765 175) rotate(0 47.02462696097788 0.27276842598337225)"><path d="M-0.74 -0.82 C14.89 -0.72, 79.11 0.83, 94.78 1.17 M1.08 1.36 C16.55 1.11, 79.22 -0.03, 94.44 -0.34" stroke="#000000" stroke-width="1" fill="none"></path></g></g><g stroke-linecap="round"><g transform="translate(95.18136367164561 197) rotate(0 41.79852099493138 0.2324494949402265)"><path d="M-0.68 -0.65 C13.26 -0.69, 70.17 -1.16, 84.27 -1.16 M1.17 1.63 C14.96 1.76, 70.05 -0.01, 83.75 -0.24" stroke="#000000" stroke-width="1" fill="none"></path></g></g><g stroke-linecap="round"><g transform="translate(98.18136367164561 220) rotate(0 46.36747220158577 -0.22257988622244795)"><path d="M-1.15 -1.2 C14.45 -1.3, 77.93 -1.18, 93.88 -1.15 M0.45 0.79 C15.88 0.84, 77.37 -0.05, 93 -0.21" stroke="#000000" stroke-width="1" fill="none"></path></g></g><g stroke-linecap="round"><g transform="translate(97.18136367164561 245) rotate(0 42.31933746933939 0.31210810717229265)"><path d="M-1.09 -0.8 C13.38 -0.76, 71.37 -0.95, 85.73 -0.66 M0.54 1.4 C15.03 1.66, 71.34 0.91, 85.33 0.54" stroke="#000000" stroke-width="1" fill="none"></path></g></g><g stroke-opacity="0.8" fill-opacity="0.8" stroke-linecap="round" transform="translate(101 432) rotate(0 149.5 23)"><path d="M-0.9 0.14 C61.09 -1.67, 122.09 -0.32, 299.34 -0.62 M300.42 -0.88 C300.44 11.58, 298.24 20.92, 298.8 47.67 M299.96 45.35 C184.79 46.58, 70.96 46.65, -1.04 45.19 M1.47 47.39 C-1.5 28.54, -1.72 13.96, -0.28 -1.56" stroke="#000000" stroke-width="1.5" fill="none" stroke-dasharray="1.5 7"></path></g><g stroke-opacity="0.8" fill-opacity="0.8" transform="translate(149 442) rotate(0 106 11.5)"><text x="0" y="18" font-family="Helvetica, Segoe UI Emoji" font-size="20px" fill="#000000" text-anchor="start" style="white-space: pre;" direction="ltr">salt-minion : web server</text></g><g stroke-linecap="round"><g stroke-opacity="0.8" fill-opacity="0.8" transform="translate(149 465) rotate(0 48.46451065673489 0.15481228652615187)"><path d="M-0.93 -0.88 C14.92 -1.05, 79.24 -0.93, 95.59 -0.76 M0.78 1.27 C16.97 1.21, 81.86 0.34, 97.86 0.37" stroke="#000000" stroke-width="1" fill="none"></path></g></g><g stroke-opacity="0.8" fill-opacity="0.8" stroke-linecap="round" transform="translate(103 500) rotate(0 149.5 23)"><path d="M0.08 -0.18 C98.99 -0.97, 199.7 -0.51, 299.01 0.95 M299.54 0.97 C297.41 8.16, 301.1 17.93, 299.94 47.95 M297.9 45.37 C196.38 43.34, 95.8 44.91, 0.36 45.24 M-0.1 46.56 C1.01 33.1, 1.82 21.98, -0.45 -0.06" stroke="#000000" stroke-width="1.5" fill="none" stroke-dasharray="1.5 7"></path></g><g stroke-opacity="0.8" fill-opacity="0.8" transform="translate(151 510) rotate(0 98.5 11.5)"><text x="0" y="18" font-family="Helvetica, Segoe UI Emoji" font-size="20px" fill="#000000" text-anchor="start" style="white-space: pre;" direction="ltr">salt-minion : database</text></g><g stroke-linecap="round"><g stroke-opacity="0.8" fill-opacity="0.8" transform="translate(151 533) rotate(0 47.17132759838364 -0.04908120892008583)"><path d="M-0.15 -0.6 C15.81 -0.57, 79.94 0.11, 96.03 0.21 M-1.69 1.71 C14.06 1.34, 78.66 -1.74, 94.87 -1.8" stroke="#000000" stroke-width="1" fill="none"></path></g></g><g stroke-opacity="0.7" fill-opacity="0.7" stroke-linecap="round" transform="translate(106 566) rotate(0 180.5 23)"><path d="M-0.63 -0.42 C118.15 1.19, 235.26 1.93, 359.76 0.09 M361.39 -0.69 C362.08 11.2, 358.8 21.93, 360.83 44.49 M361.17 45.01 C261.89 46.46, 164.54 48.35, -0.39 44.9 M1.78 46.66 C-0.49 32.48, -1.39 18.02, 1.79 -0.93" stroke="#000000" stroke-width="1.5" fill="none" stroke-dasharray="1.5 7"></path></g><g stroke-opacity="0.7" fill-opacity="0.7" transform="translate(154 576) rotate(0 134 11.5)"><text x="0" y="18" font-family="Helvetica, Segoe UI Emoji" font-size="20px" fill="#000000" text-anchor="start" style="white-space: pre;" direction="ltr">salt-minion : artifact repository</text></g><g stroke-linecap="round"><g stroke-opacity="0.7" fill-opacity="0.7" transform="translate(154 599) rotate(0 48.0164971881685 0.655815098332198)"><path d="M-0.4 0.5 C15.78 0.61, 80.17 0.31, 96.43 0.03 M1.6 -0.28 C17.67 0.09, 79.62 1.62, 95.48 1.59" stroke="#000000" stroke-width="1" fill="none"></path></g></g><g stroke-opacity="0.7" fill-opacity="0.7" stroke-linecap="round" transform="translate(484 565) rotate(0 180.5 23)"><path d="M0.38 1.01 C109.52 1.19, 216.21 3.23, 360.9 -1.05 M362.49 1.91 C362.63 15.14, 360.15 25.35, 362.53 46.34 M360.58 47.02 C246.54 48.18, 129.4 48.86, -0.29 45.31 M0.98 44.6 C-1.29 31.06, 1.74 14.92, -1.31 -1.46" stroke="#000000" stroke-width="1.5" fill="none" stroke-dasharray="1.5 7"></path></g><g stroke-opacity="0.7" fill-opacity="0.7" transform="translate(532 575) rotate(0 128.5 11.5)"><text x="0" y="18" font-family="Helvetica, Segoe UI Emoji" font-size="20px" fill="#000000" text-anchor="start" style="white-space: pre;" direction="ltr">salt-minion : message queue</text></g><g stroke-linecap="round"><g stroke-opacity="0.7" fill-opacity="0.7" transform="translate(532 598) rotate(0 48.97190965222654 0.24126668348907288)"><path d="M0.96 1.06 C17.07 0.9, 79.54 -0.38, 95.64 -0.57 M0 0.57 C16.59 0.53, 81.71 0.56, 97.94 0.66" stroke="#000000" stroke-width="1" fill="none"></path></g></g><g stroke-opacity="0.8" fill-opacity="0.8" stroke-linecap="round" transform="translate(433 498) rotate(0 149.5 23)"><path d="M1.23 0.69 C85 -1.7, 167.22 0.38, 299.02 0.9 M297.4 -1.67 C300.21 17.42, 300.09 35.73, 297.09 45.71 M299.18 44.87 C212.86 45.63, 127.96 45.66, -0.77 45.75 M1.17 45.34 C-0.36 36.13, -1.92 22.87, 1.69 -1.42" stroke="#000000" stroke-width="1.5" fill="none" stroke-dasharray="1.5 7"></path></g><g stroke-opacity="0.8" fill-opacity="0.8" transform="translate(481 508) rotate(0 98.5 11.5)"><text x="0" y="18" font-family="Helvetica, Segoe UI Emoji" font-size="20px" fill="#000000" text-anchor="start" style="white-space: pre;" direction="ltr">salt-minion : database</text></g><g stroke-linecap="round"><g stroke-opacity="0.8" fill-opacity="0.8" transform="translate(481 531) rotate(0 48.68931773981541 0.12703455314044731)"><path d="M0.57 0.84 C16.44 0.58, 79.53 -0.45, 95.66 -0.59 M-0.6 0.24 C15.63 0.65, 81.69 0.46, 97.97 0.64" stroke="#000000" stroke-width="1" fill="none"></path></g></g><g stroke-opacity="0.8" fill-opacity="0.8" stroke-linecap="round" transform="translate(431 431) rotate(0 149.5 23)"><path d="M-0.63 -1.2 C76.79 1.2, 151.07 1.95, 299.34 1.18 M297.56 -1.07 C297.27 17.81, 297.29 36.45, 300.8 47.22 M297.74 46.03 C231.53 45.48, 166 47.2, -1.46 47.33 M-1.11 46.59 C0.9 33.74, -1.35 19.05, 1.73 1" stroke="#000000" stroke-width="1.5" fill="none" stroke-dasharray="1.5 7"></path></g><g stroke-opacity="0.8" fill-opacity="0.8" transform="translate(479 441) rotate(0 103.5 11.5)"><text x="0" y="18" font-family="Helvetica, Segoe UI Emoji" font-size="20px" fill="#000000" text-anchor="start" style="white-space: pre;" direction="ltr">salt-minion : webserver</text></g><g stroke-linecap="round"><g stroke-opacity="0.8" fill-opacity="0.8" transform="translate(479 464) rotate(0 48.57203439877367 0.04884179458022686)"><path d="M-0.98 0.72 C15.16 0.7, 79.54 -0.54, 95.76 -0.62 M0.7 0.04 C17.33 0.22, 82.31 0.31, 98.13 0.6" stroke="#000000" stroke-width="1" fill="none"></path></g></g><g stroke-linecap="round"><g stroke-opacity="0.8" fill-opacity="0.8" transform="translate(99 110) rotate(0 142 0)"><path d="M0 0 C47.33 0, 236.67 0, 284 0 M0 0 C47.33 0, 236.67 0, 284 0" stroke="#000000" stroke-width="2" fill="none"></path></g></g><g stroke-opacity="0.8" fill-opacity="0.8" transform="translate(33 444) rotate(0 19 11.5)"><text x="0" y="18" font-family="Helvetica, Segoe UI Emoji" font-size="20px" fill="#000000" text-anchor="start" style="white-space: pre;" direction="ltr">web</text></g><g stroke-opacity="0.8" fill-opacity="0.8" transform="translate(40 511) rotate(0 11.5 11.5)"><text x="0" y="18" font-family="Helvetica, Segoe UI Emoji" font-size="20px" fill="#000000" text-anchor="start" style="white-space: pre;" direction="ltr">db</text></g><g stroke-opacity="0.8" fill-opacity="0.8" transform="translate(14 569) rotate(0 38.5 11.5)"><text x="0" y="18" font-family="Helvetica, Segoe UI Emoji" font-size="20px" fill="#000000" text-anchor="start" style="white-space: pre;" direction="ltr">backend</text></g><g stroke-linecap="round"><g stroke-opacity="0.7" fill-opacity="0.7" transform="translate(133 341) rotate(0 1 27)"><path d="M0 0 C0.33 9, 1.67 45, 2 54" stroke="#000000" stroke-width="2.5" fill="none" stroke-dasharray="1.5 8"></path></g><g stroke-opacity="0.7" fill-opacity="0.7" transform="translate(133 341) rotate(0 1 27)"><path d="M-8.17 28.97 C-5.02 36.73, -1.86 44.49, 2 54" stroke="#000000" stroke-width="2.5" fill="none" stroke-dasharray="1.5 6"></path></g><g stroke-opacity="0.7" fill-opacity="0.7" transform="translate(133 341) rotate(0 1 27)"><path d="M10.29 28.29 C7.72 36.26, 5.15 44.23, 2 54" stroke="#000000" stroke-width="2.5" fill="none" stroke-dasharray="1.5 6"></path></g></g><g stroke-linecap="round"><g stroke-opacity="0.7" fill-opacity="0.7" transform="translate(174 338) rotate(180 1 27)"><path d="M0 0 C0.33 9, 1.67 45, 2 54" stroke="#000000" stroke-width="2.5" fill="none" stroke-dasharray="1.5 8"></path></g><g stroke-opacity="0.7" fill-opacity="0.7" transform="translate(174 338) rotate(180 1 27)"><path d="M-8.17 28.97 C-4.66 37.62, -1.14 46.27, 2 54" stroke="#000000" stroke-width="2.5" fill="none" stroke-dasharray="1.5 6"></path></g><g stroke-opacity="0.7" fill-opacity="0.7" transform="translate(174 338) rotate(180 1 27)"><path d="M10.29 28.29 C7.43 37.17, 4.56 46.06, 2 54" stroke="#000000" stroke-width="2.5" fill="none" stroke-dasharray="1.5 6"></path></g></g><g stroke-linecap="round"><g stroke-opacity="0.7" fill-opacity="0.7" transform="translate(570 338) rotate(0 1 27)"><path d="M0 0 C0.33 9, 1.67 45, 2 54" stroke="#000000" stroke-width="2.5" fill="none" stroke-dasharray="1.5 8"></path></g><g stroke-opacity="0.7" fill-opacity="0.7" transform="translate(570 338) rotate(0 1 27)"><path d="M-8.17 28.97 C-4.96 36.87, -1.75 44.77, 2 54" stroke="#000000" stroke-width="2.5" fill="none" stroke-dasharray="1.5 6"></path></g><g stroke-opacity="0.7" fill-opacity="0.7" transform="translate(570 338) rotate(0 1 27)"><path d="M10.29 28.29 C7.68 36.4, 5.06 44.52, 2 54" stroke="#000000" stroke-width="2.5" fill="none" stroke-dasharray="1.5 6"></path></g></g><g stroke-linecap="round"><g stroke-opacity="0.7" fill-opacity="0.7" transform="translate(611 335) rotate(180 1 27)"><path d="M0 0 C0.33 9, 1.67 45, 2 54" stroke="#000000" stroke-width="2.5" fill="none" stroke-dasharray="1.5 8"></path></g><g stroke-opacity="0.7" fill-opacity="0.7" transform="translate(611 335) rotate(180 1 27)"><path d="M-8.17 28.97 C-5.71 35.04, -3.24 41.11, 2 54" stroke="#000000" stroke-width="2.5" fill="none" stroke-dasharray="1.5 6"></path></g><g stroke-opacity="0.7" fill-opacity="0.7" transform="translate(611 335) rotate(180 1 27)"><path d="M10.29 28.29 C8.28 34.52, 6.27 40.76, 2 54" stroke="#000000" stroke-width="2.5" fill="none" stroke-dasharray="1.5 6"></path></g></g><g stroke-opacity="0.7" fill-opacity="0.7" transform="translate(224 358) rotate(0 149.5 11.5)"><text x="0" y="18" font-family="Helvetica, Segoe UI Emoji" font-size="20px" fill="#000000" text-anchor="start" style="white-space: pre;" direction="ltr">monitoring, observing, scheduling</text></g></svg>